G75*
%MOIN*%
%OFA0B0*%
%FSLAX25Y25*%
%IPPOS*%
%LPD*%
%AMOC8*
5,1,8,0,0,1.08239X$1,22.5*
%
%ADD10C,0.01000*%
%ADD11C,0.06400*%
D10*
X0005437Y0099925D02*
X0005465Y0102244D01*
X0005551Y0104561D01*
X0005693Y0106876D01*
X0005892Y0109186D01*
X0006148Y0111491D01*
X0006460Y0113789D01*
X0006828Y0116079D01*
X0007253Y0118359D01*
X0007733Y0120627D01*
X0008269Y0122884D01*
X0008860Y0125126D01*
X0009506Y0127353D01*
X0010206Y0129564D01*
X0010960Y0131757D01*
X0011768Y0133931D01*
X0012629Y0136084D01*
X0013543Y0138215D01*
X0014509Y0140324D01*
X0015526Y0142408D01*
X0016594Y0144466D01*
X0017712Y0146498D01*
X0018880Y0148502D01*
X0020096Y0150476D01*
X0021361Y0152420D01*
X0022673Y0154332D01*
X0024032Y0156211D01*
X0025436Y0158057D01*
X0026885Y0159868D01*
X0028378Y0161642D01*
X0029914Y0163379D01*
X0031492Y0165078D01*
X0033112Y0166738D01*
X0034772Y0168358D01*
X0036471Y0169936D01*
X0038208Y0171472D01*
X0039982Y0172965D01*
X0041793Y0174414D01*
X0043639Y0175818D01*
X0045518Y0177177D01*
X0047430Y0178489D01*
X0049374Y0179754D01*
X0051348Y0180970D01*
X0053352Y0182138D01*
X0055384Y0183256D01*
X0057442Y0184324D01*
X0059526Y0185341D01*
X0061635Y0186307D01*
X0063766Y0187221D01*
X0065919Y0188082D01*
X0068093Y0188890D01*
X0070286Y0189644D01*
X0072497Y0190344D01*
X0074724Y0190990D01*
X0076966Y0191581D01*
X0079223Y0192117D01*
X0081491Y0192597D01*
X0083771Y0193022D01*
X0086061Y0193390D01*
X0088359Y0193702D01*
X0090664Y0193958D01*
X0092974Y0194157D01*
X0095289Y0194299D01*
X0097606Y0194385D01*
X0099925Y0194413D01*
X0102244Y0194385D01*
X0104561Y0194299D01*
X0106876Y0194157D01*
X0109186Y0193958D01*
X0111491Y0193702D01*
X0113789Y0193390D01*
X0116079Y0193022D01*
X0118359Y0192597D01*
X0120627Y0192117D01*
X0122884Y0191581D01*
X0125126Y0190990D01*
X0127353Y0190344D01*
X0129564Y0189644D01*
X0131757Y0188890D01*
X0133931Y0188082D01*
X0136084Y0187221D01*
X0138215Y0186307D01*
X0140324Y0185341D01*
X0142408Y0184324D01*
X0144466Y0183256D01*
X0146498Y0182138D01*
X0148502Y0180970D01*
X0150476Y0179754D01*
X0152420Y0178489D01*
X0154332Y0177177D01*
X0156211Y0175818D01*
X0158057Y0174414D01*
X0159868Y0172965D01*
X0161642Y0171472D01*
X0163379Y0169936D01*
X0165078Y0168358D01*
X0166738Y0166738D01*
X0168358Y0165078D01*
X0169936Y0163379D01*
X0171472Y0161642D01*
X0172965Y0159868D01*
X0174414Y0158057D01*
X0175818Y0156211D01*
X0177177Y0154332D01*
X0178489Y0152420D01*
X0179754Y0150476D01*
X0180970Y0148502D01*
X0182138Y0146498D01*
X0183256Y0144466D01*
X0184324Y0142408D01*
X0185341Y0140324D01*
X0186307Y0138215D01*
X0187221Y0136084D01*
X0188082Y0133931D01*
X0188890Y0131757D01*
X0189644Y0129564D01*
X0190344Y0127353D01*
X0190990Y0125126D01*
X0191581Y0122884D01*
X0192117Y0120627D01*
X0192597Y0118359D01*
X0193022Y0116079D01*
X0193390Y0113789D01*
X0193702Y0111491D01*
X0193958Y0109186D01*
X0194157Y0106876D01*
X0194299Y0104561D01*
X0194385Y0102244D01*
X0194413Y0099925D01*
X0194385Y0097606D01*
X0194299Y0095289D01*
X0194157Y0092974D01*
X0193958Y0090664D01*
X0193702Y0088359D01*
X0193390Y0086061D01*
X0193022Y0083771D01*
X0192597Y0081491D01*
X0192117Y0079223D01*
X0191581Y0076966D01*
X0190990Y0074724D01*
X0190344Y0072497D01*
X0189644Y0070286D01*
X0188890Y0068093D01*
X0188082Y0065919D01*
X0187221Y0063766D01*
X0186307Y0061635D01*
X0185341Y0059526D01*
X0184324Y0057442D01*
X0183256Y0055384D01*
X0182138Y0053352D01*
X0180970Y0051348D01*
X0179754Y0049374D01*
X0178489Y0047430D01*
X0177177Y0045518D01*
X0175818Y0043639D01*
X0174414Y0041793D01*
X0172965Y0039982D01*
X0171472Y0038208D01*
X0169936Y0036471D01*
X0168358Y0034772D01*
X0166738Y0033112D01*
X0165078Y0031492D01*
X0163379Y0029914D01*
X0161642Y0028378D01*
X0159868Y0026885D01*
X0158057Y0025436D01*
X0156211Y0024032D01*
X0154332Y0022673D01*
X0152420Y0021361D01*
X0150476Y0020096D01*
X0148502Y0018880D01*
X0146498Y0017712D01*
X0144466Y0016594D01*
X0142408Y0015526D01*
X0140324Y0014509D01*
X0138215Y0013543D01*
X0136084Y0012629D01*
X0133931Y0011768D01*
X0131757Y0010960D01*
X0129564Y0010206D01*
X0127353Y0009506D01*
X0125126Y0008860D01*
X0122884Y0008269D01*
X0120627Y0007733D01*
X0118359Y0007253D01*
X0116079Y0006828D01*
X0113789Y0006460D01*
X0111491Y0006148D01*
X0109186Y0005892D01*
X0106876Y0005693D01*
X0104561Y0005551D01*
X0102244Y0005465D01*
X0099925Y0005437D01*
X0097606Y0005465D01*
X0095289Y0005551D01*
X0092974Y0005693D01*
X0090664Y0005892D01*
X0088359Y0006148D01*
X0086061Y0006460D01*
X0083771Y0006828D01*
X0081491Y0007253D01*
X0079223Y0007733D01*
X0076966Y0008269D01*
X0074724Y0008860D01*
X0072497Y0009506D01*
X0070286Y0010206D01*
X0068093Y0010960D01*
X0065919Y0011768D01*
X0063766Y0012629D01*
X0061635Y0013543D01*
X0059526Y0014509D01*
X0057442Y0015526D01*
X0055384Y0016594D01*
X0053352Y0017712D01*
X0051348Y0018880D01*
X0049374Y0020096D01*
X0047430Y0021361D01*
X0045518Y0022673D01*
X0043639Y0024032D01*
X0041793Y0025436D01*
X0039982Y0026885D01*
X0038208Y0028378D01*
X0036471Y0029914D01*
X0034772Y0031492D01*
X0033112Y0033112D01*
X0031492Y0034772D01*
X0029914Y0036471D01*
X0028378Y0038208D01*
X0026885Y0039982D01*
X0025436Y0041793D01*
X0024032Y0043639D01*
X0022673Y0045518D01*
X0021361Y0047430D01*
X0020096Y0049374D01*
X0018880Y0051348D01*
X0017712Y0053352D01*
X0016594Y0055384D01*
X0015526Y0057442D01*
X0014509Y0059526D01*
X0013543Y0061635D01*
X0012629Y0063766D01*
X0011768Y0065919D01*
X0010960Y0068093D01*
X0010206Y0070286D01*
X0009506Y0072497D01*
X0008860Y0074724D01*
X0008269Y0076966D01*
X0007733Y0079223D01*
X0007253Y0081491D01*
X0006828Y0083771D01*
X0006460Y0086061D01*
X0006148Y0088359D01*
X0005892Y0090664D01*
X0005693Y0092974D01*
X0005551Y0095289D01*
X0005465Y0097606D01*
X0005437Y0099925D01*
D11*
X0084925Y0039500D02*
X0084925Y0033500D01*
X0094925Y0033500D02*
X0094925Y0039500D01*
X0104925Y0039500D02*
X0104925Y0033500D01*
X0114925Y0033500D02*
X0114925Y0039500D01*
M02*
