G75*
%MOIN*%
%OFA0B0*%
%FSLAX25Y25*%
%IPPOS*%
%LPD*%
%AMOC8*
5,1,8,0,0,1.08239X$1,22.5*
%
%ADD10C,0.01000*%
%ADD11R,0.00400X0.00100*%
%ADD12R,0.00300X0.00100*%
%ADD13R,0.00600X0.00100*%
%ADD14R,0.00700X0.00100*%
%ADD15R,0.01800X0.00100*%
%ADD16R,0.00900X0.00100*%
%ADD17R,0.01000X0.00100*%
%ADD18R,0.01100X0.00100*%
%ADD19R,0.01200X0.00100*%
%ADD20R,0.00200X0.00100*%
%ADD21R,0.00500X0.00100*%
%ADD22R,0.00100X0.00100*%
%ADD23R,0.00800X0.00100*%
%ADD24R,0.03200X0.00100*%
%ADD25R,0.03100X0.00100*%
%ADD26R,0.03000X0.00100*%
%ADD27R,0.02900X0.00100*%
%ADD28R,0.02700X0.00100*%
%ADD29R,0.01700X0.00100*%
%ADD30C,0.00600*%
%ADD31C,0.00400*%
%ADD32C,0.00300*%
D10*
X0005437Y0099925D02*
X0005465Y0102244D01*
X0005551Y0104561D01*
X0005693Y0106876D01*
X0005892Y0109186D01*
X0006148Y0111491D01*
X0006460Y0113789D01*
X0006828Y0116079D01*
X0007253Y0118359D01*
X0007733Y0120627D01*
X0008269Y0122884D01*
X0008860Y0125126D01*
X0009506Y0127353D01*
X0010206Y0129564D01*
X0010960Y0131757D01*
X0011768Y0133931D01*
X0012629Y0136084D01*
X0013543Y0138215D01*
X0014509Y0140324D01*
X0015526Y0142408D01*
X0016594Y0144466D01*
X0017712Y0146498D01*
X0018880Y0148502D01*
X0020096Y0150476D01*
X0021361Y0152420D01*
X0022673Y0154332D01*
X0024032Y0156211D01*
X0025436Y0158057D01*
X0026885Y0159868D01*
X0028378Y0161642D01*
X0029914Y0163379D01*
X0031492Y0165078D01*
X0033112Y0166738D01*
X0034772Y0168358D01*
X0036471Y0169936D01*
X0038208Y0171472D01*
X0039982Y0172965D01*
X0041793Y0174414D01*
X0043639Y0175818D01*
X0045518Y0177177D01*
X0047430Y0178489D01*
X0049374Y0179754D01*
X0051348Y0180970D01*
X0053352Y0182138D01*
X0055384Y0183256D01*
X0057442Y0184324D01*
X0059526Y0185341D01*
X0061635Y0186307D01*
X0063766Y0187221D01*
X0065919Y0188082D01*
X0068093Y0188890D01*
X0070286Y0189644D01*
X0072497Y0190344D01*
X0074724Y0190990D01*
X0076966Y0191581D01*
X0079223Y0192117D01*
X0081491Y0192597D01*
X0083771Y0193022D01*
X0086061Y0193390D01*
X0088359Y0193702D01*
X0090664Y0193958D01*
X0092974Y0194157D01*
X0095289Y0194299D01*
X0097606Y0194385D01*
X0099925Y0194413D01*
X0102244Y0194385D01*
X0104561Y0194299D01*
X0106876Y0194157D01*
X0109186Y0193958D01*
X0111491Y0193702D01*
X0113789Y0193390D01*
X0116079Y0193022D01*
X0118359Y0192597D01*
X0120627Y0192117D01*
X0122884Y0191581D01*
X0125126Y0190990D01*
X0127353Y0190344D01*
X0129564Y0189644D01*
X0131757Y0188890D01*
X0133931Y0188082D01*
X0136084Y0187221D01*
X0138215Y0186307D01*
X0140324Y0185341D01*
X0142408Y0184324D01*
X0144466Y0183256D01*
X0146498Y0182138D01*
X0148502Y0180970D01*
X0150476Y0179754D01*
X0152420Y0178489D01*
X0154332Y0177177D01*
X0156211Y0175818D01*
X0158057Y0174414D01*
X0159868Y0172965D01*
X0161642Y0171472D01*
X0163379Y0169936D01*
X0165078Y0168358D01*
X0166738Y0166738D01*
X0168358Y0165078D01*
X0169936Y0163379D01*
X0171472Y0161642D01*
X0172965Y0159868D01*
X0174414Y0158057D01*
X0175818Y0156211D01*
X0177177Y0154332D01*
X0178489Y0152420D01*
X0179754Y0150476D01*
X0180970Y0148502D01*
X0182138Y0146498D01*
X0183256Y0144466D01*
X0184324Y0142408D01*
X0185341Y0140324D01*
X0186307Y0138215D01*
X0187221Y0136084D01*
X0188082Y0133931D01*
X0188890Y0131757D01*
X0189644Y0129564D01*
X0190344Y0127353D01*
X0190990Y0125126D01*
X0191581Y0122884D01*
X0192117Y0120627D01*
X0192597Y0118359D01*
X0193022Y0116079D01*
X0193390Y0113789D01*
X0193702Y0111491D01*
X0193958Y0109186D01*
X0194157Y0106876D01*
X0194299Y0104561D01*
X0194385Y0102244D01*
X0194413Y0099925D01*
X0194385Y0097606D01*
X0194299Y0095289D01*
X0194157Y0092974D01*
X0193958Y0090664D01*
X0193702Y0088359D01*
X0193390Y0086061D01*
X0193022Y0083771D01*
X0192597Y0081491D01*
X0192117Y0079223D01*
X0191581Y0076966D01*
X0190990Y0074724D01*
X0190344Y0072497D01*
X0189644Y0070286D01*
X0188890Y0068093D01*
X0188082Y0065919D01*
X0187221Y0063766D01*
X0186307Y0061635D01*
X0185341Y0059526D01*
X0184324Y0057442D01*
X0183256Y0055384D01*
X0182138Y0053352D01*
X0180970Y0051348D01*
X0179754Y0049374D01*
X0178489Y0047430D01*
X0177177Y0045518D01*
X0175818Y0043639D01*
X0174414Y0041793D01*
X0172965Y0039982D01*
X0171472Y0038208D01*
X0169936Y0036471D01*
X0168358Y0034772D01*
X0166738Y0033112D01*
X0165078Y0031492D01*
X0163379Y0029914D01*
X0161642Y0028378D01*
X0159868Y0026885D01*
X0158057Y0025436D01*
X0156211Y0024032D01*
X0154332Y0022673D01*
X0152420Y0021361D01*
X0150476Y0020096D01*
X0148502Y0018880D01*
X0146498Y0017712D01*
X0144466Y0016594D01*
X0142408Y0015526D01*
X0140324Y0014509D01*
X0138215Y0013543D01*
X0136084Y0012629D01*
X0133931Y0011768D01*
X0131757Y0010960D01*
X0129564Y0010206D01*
X0127353Y0009506D01*
X0125126Y0008860D01*
X0122884Y0008269D01*
X0120627Y0007733D01*
X0118359Y0007253D01*
X0116079Y0006828D01*
X0113789Y0006460D01*
X0111491Y0006148D01*
X0109186Y0005892D01*
X0106876Y0005693D01*
X0104561Y0005551D01*
X0102244Y0005465D01*
X0099925Y0005437D01*
X0097606Y0005465D01*
X0095289Y0005551D01*
X0092974Y0005693D01*
X0090664Y0005892D01*
X0088359Y0006148D01*
X0086061Y0006460D01*
X0083771Y0006828D01*
X0081491Y0007253D01*
X0079223Y0007733D01*
X0076966Y0008269D01*
X0074724Y0008860D01*
X0072497Y0009506D01*
X0070286Y0010206D01*
X0068093Y0010960D01*
X0065919Y0011768D01*
X0063766Y0012629D01*
X0061635Y0013543D01*
X0059526Y0014509D01*
X0057442Y0015526D01*
X0055384Y0016594D01*
X0053352Y0017712D01*
X0051348Y0018880D01*
X0049374Y0020096D01*
X0047430Y0021361D01*
X0045518Y0022673D01*
X0043639Y0024032D01*
X0041793Y0025436D01*
X0039982Y0026885D01*
X0038208Y0028378D01*
X0036471Y0029914D01*
X0034772Y0031492D01*
X0033112Y0033112D01*
X0031492Y0034772D01*
X0029914Y0036471D01*
X0028378Y0038208D01*
X0026885Y0039982D01*
X0025436Y0041793D01*
X0024032Y0043639D01*
X0022673Y0045518D01*
X0021361Y0047430D01*
X0020096Y0049374D01*
X0018880Y0051348D01*
X0017712Y0053352D01*
X0016594Y0055384D01*
X0015526Y0057442D01*
X0014509Y0059526D01*
X0013543Y0061635D01*
X0012629Y0063766D01*
X0011768Y0065919D01*
X0010960Y0068093D01*
X0010206Y0070286D01*
X0009506Y0072497D01*
X0008860Y0074724D01*
X0008269Y0076966D01*
X0007733Y0079223D01*
X0007253Y0081491D01*
X0006828Y0083771D01*
X0006460Y0086061D01*
X0006148Y0088359D01*
X0005892Y0090664D01*
X0005693Y0092974D01*
X0005551Y0095289D01*
X0005465Y0097606D01*
X0005437Y0099925D01*
D11*
X0096850Y0020900D03*
X0096850Y0020800D03*
X0096850Y0020700D03*
X0096850Y0020600D03*
X0096850Y0020500D03*
X0096750Y0020200D03*
X0096750Y0020100D03*
X0096750Y0020000D03*
X0096750Y0019900D03*
X0096750Y0019800D03*
X0096750Y0019700D03*
X0096650Y0019400D03*
X0096650Y0019300D03*
X0096350Y0018300D03*
X0097850Y0019200D03*
X0097850Y0019300D03*
X0097850Y0019400D03*
X0097850Y0019500D03*
X0097850Y0019600D03*
X0097850Y0019700D03*
X0097850Y0019800D03*
X0097850Y0019900D03*
X0097850Y0020000D03*
X0097850Y0020100D03*
X0097850Y0020200D03*
X0097950Y0020600D03*
X0097950Y0020700D03*
X0097950Y0020800D03*
X0097950Y0020900D03*
D12*
X0097900Y0020500D03*
X0097900Y0020400D03*
X0097900Y0020300D03*
X0098900Y0019000D03*
X0098800Y0018900D03*
X0098300Y0018300D03*
X0101100Y0019000D03*
X0101100Y0019100D03*
X0102200Y0019100D03*
X0102200Y0019000D03*
X0096000Y0020900D03*
D13*
X0096550Y0019000D03*
X0096350Y0018500D03*
X0096350Y0018400D03*
X0097950Y0019000D03*
X0100250Y0019800D03*
X0100050Y0021600D03*
X0100150Y0021800D03*
X0100250Y0022000D03*
X0100350Y0022100D03*
X0100450Y0022200D03*
X0100550Y0022300D03*
X0102750Y0022300D03*
X0102850Y0022200D03*
X0102950Y0022100D03*
X0103050Y0022000D03*
X0103150Y0021800D03*
X0103250Y0021600D03*
X0103050Y0019800D03*
D14*
X0103100Y0019900D03*
X0103200Y0020000D03*
X0103200Y0020100D03*
X0103300Y0020200D03*
X0103300Y0020300D03*
X0103300Y0020400D03*
X0103400Y0020800D03*
X0103400Y0020900D03*
X0103400Y0021000D03*
X0103400Y0021100D03*
X0103300Y0021300D03*
X0103300Y0021400D03*
X0103300Y0021500D03*
X0103200Y0021700D03*
X0103100Y0021900D03*
X0102400Y0022500D03*
X0100900Y0022500D03*
X0100200Y0021900D03*
X0100100Y0021700D03*
X0100000Y0021500D03*
X0100000Y0021400D03*
X0100000Y0021300D03*
X0099900Y0021100D03*
X0099900Y0021000D03*
X0099900Y0020900D03*
X0099900Y0020800D03*
X0099900Y0020700D03*
X0100000Y0020400D03*
X0100000Y0020300D03*
X0100000Y0020200D03*
X0100100Y0020100D03*
X0100100Y0020000D03*
X0100200Y0019900D03*
X0100300Y0019700D03*
X0100400Y0019600D03*
X0100500Y0019500D03*
X0100700Y0019400D03*
X0102600Y0019400D03*
X0102800Y0019500D03*
X0102900Y0019600D03*
X0103000Y0019700D03*
X0098300Y0018400D03*
X0098000Y0018900D03*
X0096500Y0018900D03*
X0096400Y0018800D03*
X0096400Y0018700D03*
X0096400Y0018600D03*
D15*
X0100350Y0018600D03*
X0100350Y0018700D03*
X0100350Y0018800D03*
X0100350Y0018900D03*
X0100350Y0018500D03*
X0100350Y0018400D03*
X0102950Y0018400D03*
X0102950Y0018500D03*
X0102950Y0018600D03*
X0102950Y0018700D03*
X0102950Y0018800D03*
X0102950Y0018900D03*
D16*
X0098300Y0018500D03*
D17*
X0098350Y0018600D03*
X0101650Y0022700D03*
D18*
X0098300Y0018700D03*
D19*
X0098350Y0018800D03*
D20*
X0098950Y0019100D03*
X0098950Y0019200D03*
X0098950Y0019300D03*
X0099550Y0019100D03*
X0099550Y0019000D03*
X0095850Y0020700D03*
X0095850Y0020800D03*
X0103750Y0019100D03*
X0103750Y0019000D03*
D21*
X0102300Y0019200D03*
X0101000Y0019200D03*
X0097900Y0019100D03*
X0096700Y0019500D03*
X0096700Y0019600D03*
X0096600Y0019200D03*
X0096600Y0019100D03*
X0096800Y0020300D03*
X0096800Y0020400D03*
X0100700Y0022400D03*
X0102600Y0022400D03*
D22*
X0103800Y0019300D03*
X0103800Y0019200D03*
X0099500Y0019200D03*
X0099500Y0019300D03*
X0095800Y0020600D03*
D23*
X0099950Y0020600D03*
X0099950Y0020500D03*
X0099950Y0021200D03*
X0100850Y0019300D03*
X0102450Y0019300D03*
X0103350Y0020500D03*
X0103350Y0020600D03*
X0103350Y0020700D03*
X0103350Y0021200D03*
D24*
X0097450Y0021000D03*
D25*
X0097500Y0021100D03*
X0097500Y0021200D03*
D26*
X0097550Y0021300D03*
D27*
X0097600Y0021400D03*
D28*
X0097700Y0021500D03*
D29*
X0101600Y0022600D03*
D30*
X0102425Y0031500D02*
X0099925Y0034000D01*
X0097425Y0031500D01*
X0092425Y0031500D01*
X0089925Y0034000D01*
X0087425Y0031500D01*
X0082425Y0031500D01*
X0079925Y0034000D01*
X0079925Y0039000D01*
X0082425Y0041500D01*
X0087425Y0041500D01*
X0089925Y0039000D01*
X0092425Y0041500D01*
X0097425Y0041500D01*
X0099925Y0039000D01*
X0099925Y0034000D01*
X0102425Y0031500D02*
X0107425Y0031500D01*
X0109925Y0034000D01*
X0112425Y0031500D01*
X0117425Y0031500D01*
X0119925Y0034000D01*
X0119925Y0039000D01*
X0117425Y0041500D01*
X0112425Y0041500D01*
X0109925Y0039000D01*
X0109925Y0034000D01*
X0109925Y0039000D02*
X0107425Y0041500D01*
X0102425Y0041500D01*
X0099925Y0039000D01*
X0089925Y0039000D02*
X0089925Y0034000D01*
D31*
X0122325Y0034501D02*
X0122926Y0033900D01*
X0123526Y0033900D01*
X0124127Y0034501D01*
X0124127Y0037503D01*
X0124727Y0037503D02*
X0123526Y0037503D01*
X0126008Y0037503D02*
X0126008Y0033900D01*
X0126008Y0035101D02*
X0127810Y0035101D01*
X0128410Y0035702D01*
X0128410Y0036903D01*
X0127810Y0037503D01*
X0126008Y0037503D01*
X0129691Y0036302D02*
X0130893Y0037503D01*
X0130893Y0033900D01*
X0132094Y0033900D02*
X0129691Y0033900D01*
D32*
X0036900Y0063900D02*
X0036900Y0067603D01*
X0038752Y0067603D01*
X0039369Y0066986D01*
X0039369Y0065752D01*
X0038752Y0065134D01*
X0036900Y0065134D01*
X0038134Y0065134D02*
X0039369Y0063900D01*
X0040583Y0063900D02*
X0043052Y0063900D01*
X0041818Y0063900D02*
X0041818Y0067603D01*
X0040583Y0066369D01*
X0040217Y0072900D02*
X0042686Y0075369D01*
X0042686Y0075986D01*
X0042068Y0076603D01*
X0040834Y0076603D01*
X0040217Y0075986D01*
X0039002Y0075986D02*
X0039002Y0074752D01*
X0038385Y0074134D01*
X0036534Y0074134D01*
X0036534Y0072900D02*
X0036534Y0076603D01*
X0038385Y0076603D01*
X0039002Y0075986D01*
X0037768Y0074134D02*
X0039002Y0072900D01*
X0040217Y0072900D02*
X0042686Y0072900D01*
X0051900Y0073900D02*
X0051900Y0077603D01*
X0053752Y0077603D01*
X0054369Y0076986D01*
X0054369Y0075752D01*
X0053752Y0075134D01*
X0051900Y0075134D01*
X0053134Y0075134D02*
X0054369Y0073900D01*
X0055583Y0074517D02*
X0056200Y0073900D01*
X0057435Y0073900D01*
X0058052Y0074517D01*
X0058052Y0075752D01*
X0057435Y0076369D01*
X0056818Y0076369D01*
X0055583Y0075752D01*
X0055583Y0077603D01*
X0058052Y0077603D01*
X0057435Y0083900D02*
X0058052Y0084517D01*
X0058052Y0085134D01*
X0057435Y0085752D01*
X0055583Y0085752D01*
X0055583Y0084517D01*
X0056200Y0083900D01*
X0057435Y0083900D01*
X0055583Y0085752D02*
X0056818Y0086986D01*
X0058052Y0087603D01*
X0054369Y0086986D02*
X0054369Y0085752D01*
X0053752Y0085134D01*
X0051900Y0085134D01*
X0051900Y0083900D02*
X0051900Y0087603D01*
X0053752Y0087603D01*
X0054369Y0086986D01*
X0053134Y0085134D02*
X0054369Y0083900D01*
X0054369Y0093900D02*
X0053134Y0095134D01*
X0053752Y0095134D02*
X0051900Y0095134D01*
X0051900Y0093900D02*
X0051900Y0097603D01*
X0053752Y0097603D01*
X0054369Y0096986D01*
X0054369Y0095752D01*
X0053752Y0095134D01*
X0055583Y0094517D02*
X0055583Y0093900D01*
X0055583Y0094517D02*
X0058052Y0096986D01*
X0058052Y0097603D01*
X0055583Y0097603D01*
X0056250Y0103900D02*
X0055633Y0104517D01*
X0055633Y0105134D01*
X0056250Y0105752D01*
X0057485Y0105752D01*
X0058102Y0105134D01*
X0058102Y0104517D01*
X0057485Y0103900D01*
X0056250Y0103900D01*
X0054419Y0103900D02*
X0053184Y0105134D01*
X0053802Y0105134D02*
X0051950Y0105134D01*
X0051950Y0103900D02*
X0051950Y0107603D01*
X0053802Y0107603D01*
X0054419Y0106986D01*
X0054419Y0105752D01*
X0053802Y0105134D01*
X0055633Y0106369D02*
X0055633Y0106986D01*
X0056250Y0107603D01*
X0057485Y0107603D01*
X0058102Y0106986D01*
X0058102Y0106369D01*
X0057485Y0105752D01*
X0056250Y0105752D02*
X0055633Y0106369D01*
X0066900Y0107603D02*
X0066900Y0103900D01*
X0066900Y0105134D02*
X0068752Y0105134D01*
X0069369Y0105752D01*
X0069369Y0106986D01*
X0068752Y0107603D01*
X0066900Y0107603D01*
X0068134Y0105134D02*
X0069369Y0103900D01*
X0070583Y0103900D02*
X0073052Y0103900D01*
X0071818Y0103900D02*
X0071818Y0107603D01*
X0070583Y0106369D01*
X0074266Y0105752D02*
X0076118Y0105752D01*
X0076735Y0105134D01*
X0076735Y0104517D01*
X0076118Y0103900D01*
X0074883Y0103900D01*
X0074266Y0104517D01*
X0074266Y0105752D01*
X0075501Y0106986D01*
X0076735Y0107603D01*
X0081900Y0107603D02*
X0081900Y0103900D01*
X0081900Y0105134D02*
X0083752Y0105134D01*
X0084369Y0105752D01*
X0084369Y0106986D01*
X0083752Y0107603D01*
X0081900Y0107603D01*
X0083134Y0105134D02*
X0084369Y0103900D01*
X0085583Y0103900D02*
X0088052Y0106369D01*
X0088052Y0106986D01*
X0087435Y0107603D01*
X0086200Y0107603D01*
X0085583Y0106986D01*
X0085583Y0103900D02*
X0088052Y0103900D01*
X0089266Y0104517D02*
X0089883Y0103900D01*
X0091118Y0103900D01*
X0091735Y0104517D01*
X0091735Y0105134D01*
X0091118Y0105752D01*
X0089266Y0105752D01*
X0089266Y0104517D01*
X0089266Y0105752D02*
X0090501Y0106986D01*
X0091735Y0107603D01*
X0096900Y0107603D02*
X0096900Y0103900D01*
X0096900Y0105134D02*
X0098752Y0105134D01*
X0099369Y0105752D01*
X0099369Y0106986D01*
X0098752Y0107603D01*
X0096900Y0107603D01*
X0098134Y0105134D02*
X0099369Y0103900D01*
X0100583Y0104517D02*
X0101200Y0103900D01*
X0102435Y0103900D01*
X0103052Y0104517D01*
X0103052Y0105134D01*
X0102435Y0105752D01*
X0101818Y0105752D01*
X0102435Y0105752D02*
X0103052Y0106369D01*
X0103052Y0106986D01*
X0102435Y0107603D01*
X0101200Y0107603D01*
X0100583Y0106986D01*
X0104266Y0105752D02*
X0106118Y0105752D01*
X0106735Y0105134D01*
X0106735Y0104517D01*
X0106118Y0103900D01*
X0104883Y0103900D01*
X0104266Y0104517D01*
X0104266Y0105752D01*
X0105501Y0106986D01*
X0106735Y0107603D01*
X0111900Y0107603D02*
X0111900Y0103900D01*
X0111900Y0105134D02*
X0113752Y0105134D01*
X0114369Y0105752D01*
X0114369Y0106986D01*
X0113752Y0107603D01*
X0111900Y0107603D01*
X0113134Y0105134D02*
X0114369Y0103900D01*
X0115583Y0105752D02*
X0118052Y0105752D01*
X0119266Y0105752D02*
X0121118Y0105752D01*
X0121735Y0105134D01*
X0121735Y0104517D01*
X0121118Y0103900D01*
X0119883Y0103900D01*
X0119266Y0104517D01*
X0119266Y0105752D01*
X0120501Y0106986D01*
X0121735Y0107603D01*
X0117435Y0107603D02*
X0117435Y0103900D01*
X0115583Y0105752D02*
X0117435Y0107603D01*
X0126900Y0107603D02*
X0126900Y0103900D01*
X0126900Y0105134D02*
X0128752Y0105134D01*
X0129369Y0105752D01*
X0129369Y0106986D01*
X0128752Y0107603D01*
X0126900Y0107603D01*
X0128134Y0105134D02*
X0129369Y0103900D01*
X0130583Y0104517D02*
X0131200Y0103900D01*
X0132435Y0103900D01*
X0133052Y0104517D01*
X0133052Y0105752D01*
X0132435Y0106369D01*
X0131818Y0106369D01*
X0130583Y0105752D01*
X0130583Y0107603D01*
X0133052Y0107603D01*
X0134266Y0105752D02*
X0136118Y0105752D01*
X0136735Y0105134D01*
X0136735Y0104517D01*
X0136118Y0103900D01*
X0134883Y0103900D01*
X0134266Y0104517D01*
X0134266Y0105752D01*
X0135501Y0106986D01*
X0136735Y0107603D01*
X0141900Y0107603D02*
X0141900Y0103900D01*
X0141900Y0105134D02*
X0143752Y0105134D01*
X0144369Y0105752D01*
X0144369Y0106986D01*
X0143752Y0107603D01*
X0141900Y0107603D01*
X0143134Y0105134D02*
X0144369Y0103900D01*
X0145583Y0104517D02*
X0146200Y0103900D01*
X0147435Y0103900D01*
X0148052Y0104517D01*
X0148052Y0105134D01*
X0147435Y0105752D01*
X0145583Y0105752D01*
X0145583Y0104517D01*
X0145583Y0105752D02*
X0146818Y0106986D01*
X0148052Y0107603D01*
X0149266Y0105752D02*
X0151118Y0105752D01*
X0151735Y0105134D01*
X0151735Y0104517D01*
X0151118Y0103900D01*
X0149883Y0103900D01*
X0149266Y0104517D01*
X0149266Y0105752D01*
X0150501Y0106986D01*
X0151735Y0107603D01*
X0151735Y0097603D02*
X0149266Y0097603D01*
X0149266Y0095752D01*
X0150501Y0096369D01*
X0151118Y0096369D01*
X0151735Y0095752D01*
X0151735Y0094517D01*
X0151118Y0093900D01*
X0149883Y0093900D01*
X0149266Y0094517D01*
X0148052Y0094517D02*
X0148052Y0095134D01*
X0147435Y0095752D01*
X0145583Y0095752D01*
X0145583Y0094517D01*
X0146200Y0093900D01*
X0147435Y0093900D01*
X0148052Y0094517D01*
X0146818Y0096986D02*
X0145583Y0095752D01*
X0144369Y0095752D02*
X0143752Y0095134D01*
X0141900Y0095134D01*
X0141900Y0093900D02*
X0141900Y0097603D01*
X0143752Y0097603D01*
X0144369Y0096986D01*
X0144369Y0095752D01*
X0143134Y0095134D02*
X0144369Y0093900D01*
X0146818Y0096986D02*
X0148052Y0097603D01*
X0148052Y0087603D02*
X0146818Y0086986D01*
X0145583Y0085752D01*
X0147435Y0085752D01*
X0148052Y0085134D01*
X0148052Y0084517D01*
X0147435Y0083900D01*
X0146200Y0083900D01*
X0145583Y0084517D01*
X0145583Y0085752D01*
X0144369Y0085752D02*
X0143752Y0085134D01*
X0141900Y0085134D01*
X0141900Y0083900D02*
X0141900Y0087603D01*
X0143752Y0087603D01*
X0144369Y0086986D01*
X0144369Y0085752D01*
X0143134Y0085134D02*
X0144369Y0083900D01*
X0149266Y0085752D02*
X0151735Y0085752D01*
X0151118Y0087603D02*
X0151118Y0083900D01*
X0149266Y0085752D02*
X0151118Y0087603D01*
X0151118Y0077603D02*
X0149883Y0077603D01*
X0149266Y0076986D01*
X0148052Y0077603D02*
X0146818Y0076986D01*
X0145583Y0075752D01*
X0147435Y0075752D01*
X0148052Y0075134D01*
X0148052Y0074517D01*
X0147435Y0073900D01*
X0146200Y0073900D01*
X0145583Y0074517D01*
X0145583Y0075752D01*
X0144369Y0075752D02*
X0143752Y0075134D01*
X0141900Y0075134D01*
X0141900Y0073900D02*
X0141900Y0077603D01*
X0143752Y0077603D01*
X0144369Y0076986D01*
X0144369Y0075752D01*
X0143134Y0075134D02*
X0144369Y0073900D01*
X0149266Y0074517D02*
X0149883Y0073900D01*
X0151118Y0073900D01*
X0151735Y0074517D01*
X0151735Y0075134D01*
X0151118Y0075752D01*
X0150501Y0075752D01*
X0151118Y0075752D02*
X0151735Y0076369D01*
X0151735Y0076986D01*
X0151118Y0077603D01*
X0151118Y0067603D02*
X0149883Y0067603D01*
X0149266Y0066986D01*
X0148052Y0067603D02*
X0146818Y0066986D01*
X0145583Y0065752D01*
X0147435Y0065752D01*
X0148052Y0065134D01*
X0148052Y0064517D01*
X0147435Y0063900D01*
X0146200Y0063900D01*
X0145583Y0064517D01*
X0145583Y0065752D01*
X0144369Y0065752D02*
X0143752Y0065134D01*
X0141900Y0065134D01*
X0141900Y0063900D02*
X0141900Y0067603D01*
X0143752Y0067603D01*
X0144369Y0066986D01*
X0144369Y0065752D01*
X0143134Y0065134D02*
X0144369Y0063900D01*
X0149266Y0063900D02*
X0151735Y0066369D01*
X0151735Y0066986D01*
X0151118Y0067603D01*
X0151735Y0063900D02*
X0149266Y0063900D01*
X0156900Y0063900D02*
X0156900Y0067603D01*
X0158752Y0067603D01*
X0159369Y0066986D01*
X0159369Y0065752D01*
X0158752Y0065134D01*
X0156900Y0065134D01*
X0158134Y0065134D02*
X0159369Y0063900D01*
X0160583Y0063900D02*
X0160583Y0064517D01*
X0163052Y0066986D01*
X0163052Y0067603D01*
X0160583Y0067603D01*
X0164266Y0066986D02*
X0164883Y0067603D01*
X0166118Y0067603D01*
X0166735Y0066986D01*
X0166735Y0066369D01*
X0164266Y0063900D01*
X0166735Y0063900D01*
X0136735Y0063900D02*
X0134266Y0063900D01*
X0136735Y0066369D01*
X0136735Y0066986D01*
X0136118Y0067603D01*
X0134883Y0067603D01*
X0134266Y0066986D01*
X0133052Y0067603D02*
X0130583Y0067603D01*
X0130583Y0065752D01*
X0131818Y0066369D01*
X0132435Y0066369D01*
X0133052Y0065752D01*
X0133052Y0064517D01*
X0132435Y0063900D01*
X0131200Y0063900D01*
X0130583Y0064517D01*
X0129369Y0063900D02*
X0128134Y0065134D01*
X0128752Y0065134D02*
X0126900Y0065134D01*
X0126900Y0063900D02*
X0126900Y0067603D01*
X0128752Y0067603D01*
X0129369Y0066986D01*
X0129369Y0065752D01*
X0128752Y0065134D01*
X0121735Y0063900D02*
X0119266Y0063900D01*
X0121735Y0066369D01*
X0121735Y0066986D01*
X0121118Y0067603D01*
X0119883Y0067603D01*
X0119266Y0066986D01*
X0118052Y0065752D02*
X0115583Y0065752D01*
X0117435Y0067603D01*
X0117435Y0063900D01*
X0114369Y0063900D02*
X0113134Y0065134D01*
X0113752Y0065134D02*
X0111900Y0065134D01*
X0111900Y0063900D02*
X0111900Y0067603D01*
X0113752Y0067603D01*
X0114369Y0066986D01*
X0114369Y0065752D01*
X0113752Y0065134D01*
X0106735Y0063900D02*
X0104266Y0063900D01*
X0106735Y0066369D01*
X0106735Y0066986D01*
X0106118Y0067603D01*
X0104883Y0067603D01*
X0104266Y0066986D01*
X0103052Y0066986D02*
X0103052Y0066369D01*
X0102435Y0065752D01*
X0103052Y0065134D01*
X0103052Y0064517D01*
X0102435Y0063900D01*
X0101200Y0063900D01*
X0100583Y0064517D01*
X0099369Y0063900D02*
X0098134Y0065134D01*
X0098752Y0065134D02*
X0096900Y0065134D01*
X0096900Y0063900D02*
X0096900Y0067603D01*
X0098752Y0067603D01*
X0099369Y0066986D01*
X0099369Y0065752D01*
X0098752Y0065134D01*
X0100583Y0066986D02*
X0101200Y0067603D01*
X0102435Y0067603D01*
X0103052Y0066986D01*
X0102435Y0065752D02*
X0101818Y0065752D01*
X0102435Y0073900D02*
X0101200Y0073900D01*
X0100583Y0074517D01*
X0099369Y0073900D02*
X0098134Y0075134D01*
X0098752Y0075134D02*
X0096900Y0075134D01*
X0096900Y0073900D02*
X0096900Y0077603D01*
X0098752Y0077603D01*
X0099369Y0076986D01*
X0099369Y0075752D01*
X0098752Y0075134D01*
X0100583Y0076986D02*
X0101200Y0077603D01*
X0102435Y0077603D01*
X0103052Y0076986D01*
X0103052Y0076369D01*
X0102435Y0075752D01*
X0103052Y0075134D01*
X0103052Y0074517D01*
X0102435Y0073900D01*
X0102435Y0075752D02*
X0101818Y0075752D01*
X0104266Y0076986D02*
X0104883Y0077603D01*
X0106118Y0077603D01*
X0106735Y0076986D01*
X0106735Y0076369D01*
X0106118Y0075752D01*
X0106735Y0075134D01*
X0106735Y0074517D01*
X0106118Y0073900D01*
X0104883Y0073900D01*
X0104266Y0074517D01*
X0105501Y0075752D02*
X0106118Y0075752D01*
X0111900Y0075134D02*
X0113752Y0075134D01*
X0114369Y0075752D01*
X0114369Y0076986D01*
X0113752Y0077603D01*
X0111900Y0077603D01*
X0111900Y0073900D01*
X0113134Y0075134D02*
X0114369Y0073900D01*
X0115583Y0075752D02*
X0118052Y0075752D01*
X0119266Y0076986D02*
X0119883Y0077603D01*
X0121118Y0077603D01*
X0121735Y0076986D01*
X0121735Y0076369D01*
X0121118Y0075752D01*
X0121735Y0075134D01*
X0121735Y0074517D01*
X0121118Y0073900D01*
X0119883Y0073900D01*
X0119266Y0074517D01*
X0120501Y0075752D02*
X0121118Y0075752D01*
X0117435Y0077603D02*
X0117435Y0073900D01*
X0115583Y0075752D02*
X0117435Y0077603D01*
X0117435Y0083900D02*
X0117435Y0087603D01*
X0115583Y0085752D01*
X0118052Y0085752D01*
X0119266Y0085752D02*
X0121735Y0085752D01*
X0121118Y0087603D02*
X0121118Y0083900D01*
X0119266Y0085752D02*
X0121118Y0087603D01*
X0126900Y0087603D02*
X0126900Y0083900D01*
X0126900Y0085134D02*
X0128752Y0085134D01*
X0129369Y0085752D01*
X0129369Y0086986D01*
X0128752Y0087603D01*
X0126900Y0087603D01*
X0128134Y0085134D02*
X0129369Y0083900D01*
X0130583Y0084517D02*
X0131200Y0083900D01*
X0132435Y0083900D01*
X0133052Y0084517D01*
X0133052Y0085752D01*
X0132435Y0086369D01*
X0131818Y0086369D01*
X0130583Y0085752D01*
X0130583Y0087603D01*
X0133052Y0087603D01*
X0134266Y0085752D02*
X0136735Y0085752D01*
X0136118Y0087603D02*
X0136118Y0083900D01*
X0134266Y0085752D02*
X0136118Y0087603D01*
X0136118Y0093900D02*
X0134883Y0093900D01*
X0134266Y0094517D01*
X0133052Y0094517D02*
X0132435Y0093900D01*
X0131200Y0093900D01*
X0130583Y0094517D01*
X0130583Y0095752D02*
X0131818Y0096369D01*
X0132435Y0096369D01*
X0133052Y0095752D01*
X0133052Y0094517D01*
X0134266Y0095752D02*
X0135501Y0096369D01*
X0136118Y0096369D01*
X0136735Y0095752D01*
X0136735Y0094517D01*
X0136118Y0093900D01*
X0134266Y0095752D02*
X0134266Y0097603D01*
X0136735Y0097603D01*
X0133052Y0097603D02*
X0130583Y0097603D01*
X0130583Y0095752D01*
X0129369Y0095752D02*
X0129369Y0096986D01*
X0128752Y0097603D01*
X0126900Y0097603D01*
X0126900Y0093900D01*
X0126900Y0095134D02*
X0128752Y0095134D01*
X0129369Y0095752D01*
X0128134Y0095134D02*
X0129369Y0093900D01*
X0121735Y0094517D02*
X0121118Y0093900D01*
X0119883Y0093900D01*
X0119266Y0094517D01*
X0119266Y0095752D02*
X0120501Y0096369D01*
X0121118Y0096369D01*
X0121735Y0095752D01*
X0121735Y0094517D01*
X0119266Y0095752D02*
X0119266Y0097603D01*
X0121735Y0097603D01*
X0118052Y0095752D02*
X0115583Y0095752D01*
X0117435Y0097603D01*
X0117435Y0093900D01*
X0114369Y0093900D02*
X0113134Y0095134D01*
X0113752Y0095134D02*
X0111900Y0095134D01*
X0111900Y0093900D02*
X0111900Y0097603D01*
X0113752Y0097603D01*
X0114369Y0096986D01*
X0114369Y0095752D01*
X0113752Y0095134D01*
X0106735Y0094517D02*
X0106118Y0093900D01*
X0104883Y0093900D01*
X0104266Y0094517D01*
X0103052Y0094517D02*
X0102435Y0093900D01*
X0101200Y0093900D01*
X0100583Y0094517D01*
X0099369Y0093900D02*
X0098134Y0095134D01*
X0098752Y0095134D02*
X0096900Y0095134D01*
X0096900Y0093900D02*
X0096900Y0097603D01*
X0098752Y0097603D01*
X0099369Y0096986D01*
X0099369Y0095752D01*
X0098752Y0095134D01*
X0100583Y0096986D02*
X0101200Y0097603D01*
X0102435Y0097603D01*
X0103052Y0096986D01*
X0103052Y0096369D01*
X0102435Y0095752D01*
X0103052Y0095134D01*
X0103052Y0094517D01*
X0102435Y0095752D02*
X0101818Y0095752D01*
X0104266Y0095752D02*
X0105501Y0096369D01*
X0106118Y0096369D01*
X0106735Y0095752D01*
X0106735Y0094517D01*
X0104266Y0095752D02*
X0104266Y0097603D01*
X0106735Y0097603D01*
X0106118Y0087603D02*
X0104266Y0085752D01*
X0106735Y0085752D01*
X0106118Y0087603D02*
X0106118Y0083900D01*
X0103052Y0084517D02*
X0102435Y0083900D01*
X0101200Y0083900D01*
X0100583Y0084517D01*
X0099369Y0083900D02*
X0098134Y0085134D01*
X0098752Y0085134D02*
X0096900Y0085134D01*
X0096900Y0083900D02*
X0096900Y0087603D01*
X0098752Y0087603D01*
X0099369Y0086986D01*
X0099369Y0085752D01*
X0098752Y0085134D01*
X0100583Y0086986D02*
X0101200Y0087603D01*
X0102435Y0087603D01*
X0103052Y0086986D01*
X0103052Y0086369D01*
X0102435Y0085752D01*
X0103052Y0085134D01*
X0103052Y0084517D01*
X0102435Y0085752D02*
X0101818Y0085752D01*
X0091735Y0085752D02*
X0089266Y0085752D01*
X0091118Y0087603D01*
X0091118Y0083900D01*
X0088052Y0083900D02*
X0085583Y0083900D01*
X0088052Y0086369D01*
X0088052Y0086986D01*
X0087435Y0087603D01*
X0086200Y0087603D01*
X0085583Y0086986D01*
X0084369Y0086986D02*
X0084369Y0085752D01*
X0083752Y0085134D01*
X0081900Y0085134D01*
X0081900Y0083900D02*
X0081900Y0087603D01*
X0083752Y0087603D01*
X0084369Y0086986D01*
X0083134Y0085134D02*
X0084369Y0083900D01*
X0083752Y0077603D02*
X0081900Y0077603D01*
X0081900Y0073900D01*
X0081900Y0075134D02*
X0083752Y0075134D01*
X0084369Y0075752D01*
X0084369Y0076986D01*
X0083752Y0077603D01*
X0085583Y0076986D02*
X0086200Y0077603D01*
X0087435Y0077603D01*
X0088052Y0076986D01*
X0088052Y0076369D01*
X0085583Y0073900D01*
X0088052Y0073900D01*
X0089266Y0074517D02*
X0089883Y0073900D01*
X0091118Y0073900D01*
X0091735Y0074517D01*
X0091735Y0075134D01*
X0091118Y0075752D01*
X0090501Y0075752D01*
X0091118Y0075752D02*
X0091735Y0076369D01*
X0091735Y0076986D01*
X0091118Y0077603D01*
X0089883Y0077603D01*
X0089266Y0076986D01*
X0084369Y0073900D02*
X0083134Y0075134D01*
X0076735Y0075134D02*
X0076735Y0074517D01*
X0076118Y0073900D01*
X0074883Y0073900D01*
X0074266Y0074517D01*
X0073052Y0073900D02*
X0070583Y0073900D01*
X0069369Y0073900D02*
X0068134Y0075134D01*
X0068752Y0075134D02*
X0066900Y0075134D01*
X0066900Y0073900D02*
X0066900Y0077603D01*
X0068752Y0077603D01*
X0069369Y0076986D01*
X0069369Y0075752D01*
X0068752Y0075134D01*
X0070583Y0076369D02*
X0071818Y0077603D01*
X0071818Y0073900D01*
X0074266Y0076986D02*
X0074883Y0077603D01*
X0076118Y0077603D01*
X0076735Y0076986D01*
X0076735Y0076369D01*
X0076118Y0075752D01*
X0076735Y0075134D01*
X0076118Y0075752D02*
X0075501Y0075752D01*
X0076118Y0083900D02*
X0076118Y0087603D01*
X0074266Y0085752D01*
X0076735Y0085752D01*
X0073052Y0083900D02*
X0070583Y0083900D01*
X0069369Y0083900D02*
X0068134Y0085134D01*
X0068752Y0085134D02*
X0066900Y0085134D01*
X0066900Y0083900D02*
X0066900Y0087603D01*
X0068752Y0087603D01*
X0069369Y0086986D01*
X0069369Y0085752D01*
X0068752Y0085134D01*
X0070583Y0086369D02*
X0071818Y0087603D01*
X0071818Y0083900D01*
X0071818Y0093900D02*
X0071818Y0097603D01*
X0070583Y0096369D01*
X0069369Y0096986D02*
X0069369Y0095752D01*
X0068752Y0095134D01*
X0066900Y0095134D01*
X0066900Y0093900D02*
X0066900Y0097603D01*
X0068752Y0097603D01*
X0069369Y0096986D01*
X0068134Y0095134D02*
X0069369Y0093900D01*
X0070583Y0093900D02*
X0073052Y0093900D01*
X0074266Y0094517D02*
X0074883Y0093900D01*
X0076118Y0093900D01*
X0076735Y0094517D01*
X0076735Y0095752D01*
X0076118Y0096369D01*
X0075501Y0096369D01*
X0074266Y0095752D01*
X0074266Y0097603D01*
X0076735Y0097603D01*
X0081900Y0097603D02*
X0081900Y0093900D01*
X0081900Y0095134D02*
X0083752Y0095134D01*
X0084369Y0095752D01*
X0084369Y0096986D01*
X0083752Y0097603D01*
X0081900Y0097603D01*
X0083134Y0095134D02*
X0084369Y0093900D01*
X0085583Y0093900D02*
X0088052Y0096369D01*
X0088052Y0096986D01*
X0087435Y0097603D01*
X0086200Y0097603D01*
X0085583Y0096986D01*
X0085583Y0093900D02*
X0088052Y0093900D01*
X0089266Y0094517D02*
X0089883Y0093900D01*
X0091118Y0093900D01*
X0091735Y0094517D01*
X0091735Y0095752D01*
X0091118Y0096369D01*
X0090501Y0096369D01*
X0089266Y0095752D01*
X0089266Y0097603D01*
X0091735Y0097603D01*
X0111900Y0087603D02*
X0111900Y0083900D01*
X0111900Y0085134D02*
X0113752Y0085134D01*
X0114369Y0085752D01*
X0114369Y0086986D01*
X0113752Y0087603D01*
X0111900Y0087603D01*
X0113134Y0085134D02*
X0114369Y0083900D01*
X0126900Y0077603D02*
X0126900Y0073900D01*
X0126900Y0075134D02*
X0128752Y0075134D01*
X0129369Y0075752D01*
X0129369Y0076986D01*
X0128752Y0077603D01*
X0126900Y0077603D01*
X0128134Y0075134D02*
X0129369Y0073900D01*
X0130583Y0074517D02*
X0131200Y0073900D01*
X0132435Y0073900D01*
X0133052Y0074517D01*
X0133052Y0075752D01*
X0132435Y0076369D01*
X0131818Y0076369D01*
X0130583Y0075752D01*
X0130583Y0077603D01*
X0133052Y0077603D01*
X0134266Y0076986D02*
X0134883Y0077603D01*
X0136118Y0077603D01*
X0136735Y0076986D01*
X0136735Y0076369D01*
X0136118Y0075752D01*
X0136735Y0075134D01*
X0136735Y0074517D01*
X0136118Y0073900D01*
X0134883Y0073900D01*
X0134266Y0074517D01*
X0135501Y0075752D02*
X0136118Y0075752D01*
X0134266Y0118900D02*
X0134266Y0119517D01*
X0136735Y0121986D01*
X0136735Y0122603D01*
X0134266Y0122603D01*
X0133052Y0122603D02*
X0130583Y0122603D01*
X0130583Y0120752D01*
X0131818Y0121369D01*
X0132435Y0121369D01*
X0133052Y0120752D01*
X0133052Y0119517D01*
X0132435Y0118900D01*
X0131200Y0118900D01*
X0130583Y0119517D01*
X0129369Y0118900D02*
X0128134Y0120134D01*
X0128752Y0120134D02*
X0126900Y0120134D01*
X0126900Y0118900D02*
X0126900Y0122603D01*
X0128752Y0122603D01*
X0129369Y0121986D01*
X0129369Y0120752D01*
X0128752Y0120134D01*
X0121735Y0121986D02*
X0119266Y0119517D01*
X0119266Y0118900D01*
X0117435Y0118900D02*
X0117435Y0122603D01*
X0115583Y0120752D01*
X0118052Y0120752D01*
X0119266Y0122603D02*
X0121735Y0122603D01*
X0121735Y0121986D01*
X0121118Y0128900D02*
X0119883Y0128900D01*
X0119266Y0129517D01*
X0119266Y0130134D01*
X0119883Y0130752D01*
X0121118Y0130752D01*
X0121735Y0130134D01*
X0121735Y0129517D01*
X0121118Y0128900D01*
X0121118Y0130752D02*
X0121735Y0131369D01*
X0121735Y0131986D01*
X0121118Y0132603D01*
X0119883Y0132603D01*
X0119266Y0131986D01*
X0119266Y0131369D01*
X0119883Y0130752D01*
X0118052Y0130752D02*
X0115583Y0130752D01*
X0117435Y0132603D01*
X0117435Y0128900D01*
X0114369Y0128900D02*
X0113134Y0130134D01*
X0113752Y0130134D02*
X0111900Y0130134D01*
X0111900Y0128900D02*
X0111900Y0132603D01*
X0113752Y0132603D01*
X0114369Y0131986D01*
X0114369Y0130752D01*
X0113752Y0130134D01*
X0106735Y0130134D02*
X0106735Y0129517D01*
X0106118Y0128900D01*
X0104883Y0128900D01*
X0104266Y0129517D01*
X0104266Y0130134D01*
X0104883Y0130752D01*
X0106118Y0130752D01*
X0106735Y0130134D01*
X0106118Y0130752D02*
X0106735Y0131369D01*
X0106735Y0131986D01*
X0106118Y0132603D01*
X0104883Y0132603D01*
X0104266Y0131986D01*
X0104266Y0131369D01*
X0104883Y0130752D01*
X0103052Y0131369D02*
X0103052Y0131986D01*
X0102435Y0132603D01*
X0101200Y0132603D01*
X0100583Y0131986D01*
X0099369Y0131986D02*
X0099369Y0130752D01*
X0098752Y0130134D01*
X0096900Y0130134D01*
X0096900Y0128900D02*
X0096900Y0132603D01*
X0098752Y0132603D01*
X0099369Y0131986D01*
X0098134Y0130134D02*
X0099369Y0128900D01*
X0100583Y0129517D02*
X0101200Y0128900D01*
X0102435Y0128900D01*
X0103052Y0129517D01*
X0103052Y0130134D01*
X0102435Y0130752D01*
X0101818Y0130752D01*
X0102435Y0130752D02*
X0103052Y0131369D01*
X0102435Y0138900D02*
X0101200Y0138900D01*
X0100583Y0139517D01*
X0099369Y0138900D02*
X0098134Y0140134D01*
X0098752Y0140134D02*
X0096900Y0140134D01*
X0096900Y0138900D02*
X0096900Y0142603D01*
X0098752Y0142603D01*
X0099369Y0141986D01*
X0099369Y0140752D01*
X0098752Y0140134D01*
X0100583Y0141986D02*
X0101200Y0142603D01*
X0102435Y0142603D01*
X0103052Y0141986D01*
X0103052Y0141369D01*
X0102435Y0140752D01*
X0103052Y0140134D01*
X0103052Y0139517D01*
X0102435Y0138900D01*
X0102435Y0140752D02*
X0101818Y0140752D01*
X0104266Y0141369D02*
X0104883Y0140752D01*
X0106735Y0140752D01*
X0106735Y0141986D02*
X0106735Y0139517D01*
X0106118Y0138900D01*
X0104883Y0138900D01*
X0104266Y0139517D01*
X0104266Y0141369D02*
X0104266Y0141986D01*
X0104883Y0142603D01*
X0106118Y0142603D01*
X0106735Y0141986D01*
X0111900Y0142603D02*
X0111900Y0138900D01*
X0111900Y0140134D02*
X0113752Y0140134D01*
X0114369Y0140752D01*
X0114369Y0141986D01*
X0113752Y0142603D01*
X0111900Y0142603D01*
X0113134Y0140134D02*
X0114369Y0138900D01*
X0115583Y0140752D02*
X0118052Y0140752D01*
X0119266Y0141369D02*
X0119883Y0140752D01*
X0121735Y0140752D01*
X0121735Y0141986D02*
X0121735Y0139517D01*
X0121118Y0138900D01*
X0119883Y0138900D01*
X0119266Y0139517D01*
X0119266Y0141369D02*
X0119266Y0141986D01*
X0119883Y0142603D01*
X0121118Y0142603D01*
X0121735Y0141986D01*
X0117435Y0142603D02*
X0117435Y0138900D01*
X0115583Y0140752D02*
X0117435Y0142603D01*
X0117435Y0148900D02*
X0116200Y0148900D01*
X0115583Y0149517D01*
X0115583Y0150752D02*
X0116818Y0151369D01*
X0117435Y0151369D01*
X0118052Y0150752D01*
X0118052Y0149517D01*
X0117435Y0148900D01*
X0119266Y0149517D02*
X0121735Y0151986D01*
X0121735Y0149517D01*
X0121118Y0148900D01*
X0119883Y0148900D01*
X0119266Y0149517D01*
X0119266Y0151986D01*
X0119883Y0152603D01*
X0121118Y0152603D01*
X0121735Y0151986D01*
X0118052Y0152603D02*
X0115583Y0152603D01*
X0115583Y0150752D01*
X0114369Y0150752D02*
X0113752Y0150134D01*
X0111900Y0150134D01*
X0111900Y0148900D02*
X0111900Y0152603D01*
X0113752Y0152603D01*
X0114369Y0151986D01*
X0114369Y0150752D01*
X0113134Y0150134D02*
X0114369Y0148900D01*
X0106735Y0149517D02*
X0106118Y0148900D01*
X0104883Y0148900D01*
X0104266Y0149517D01*
X0106735Y0151986D01*
X0106735Y0149517D01*
X0104266Y0149517D02*
X0104266Y0151986D01*
X0104883Y0152603D01*
X0106118Y0152603D01*
X0106735Y0151986D01*
X0103052Y0150752D02*
X0100583Y0150752D01*
X0102435Y0152603D01*
X0102435Y0148900D01*
X0099369Y0148900D02*
X0098134Y0150134D01*
X0098752Y0150134D02*
X0096900Y0150134D01*
X0096900Y0148900D02*
X0096900Y0152603D01*
X0098752Y0152603D01*
X0099369Y0151986D01*
X0099369Y0150752D01*
X0098752Y0150134D01*
X0091735Y0149517D02*
X0091118Y0148900D01*
X0089883Y0148900D01*
X0089266Y0149517D01*
X0091735Y0151986D01*
X0091735Y0149517D01*
X0089266Y0149517D02*
X0089266Y0151986D01*
X0089883Y0152603D01*
X0091118Y0152603D01*
X0091735Y0151986D01*
X0088052Y0151986D02*
X0088052Y0151369D01*
X0087435Y0150752D01*
X0088052Y0150134D01*
X0088052Y0149517D01*
X0087435Y0148900D01*
X0086200Y0148900D01*
X0085583Y0149517D01*
X0084369Y0148900D02*
X0083134Y0150134D01*
X0083752Y0150134D02*
X0081900Y0150134D01*
X0081900Y0148900D02*
X0081900Y0152603D01*
X0083752Y0152603D01*
X0084369Y0151986D01*
X0084369Y0150752D01*
X0083752Y0150134D01*
X0085583Y0151986D02*
X0086200Y0152603D01*
X0087435Y0152603D01*
X0088052Y0151986D01*
X0087435Y0150752D02*
X0086818Y0150752D01*
X0087435Y0158900D02*
X0086200Y0158900D01*
X0085583Y0159517D01*
X0084369Y0158900D02*
X0083134Y0160134D01*
X0083752Y0160134D02*
X0081900Y0160134D01*
X0081900Y0158900D02*
X0081900Y0162603D01*
X0083752Y0162603D01*
X0084369Y0161986D01*
X0084369Y0160752D01*
X0083752Y0160134D01*
X0085583Y0161986D02*
X0086200Y0162603D01*
X0087435Y0162603D01*
X0088052Y0161986D01*
X0088052Y0161369D01*
X0087435Y0160752D01*
X0088052Y0160134D01*
X0088052Y0159517D01*
X0087435Y0158900D01*
X0089266Y0158900D02*
X0091735Y0158900D01*
X0090501Y0158900D02*
X0090501Y0162603D01*
X0089266Y0161369D01*
X0087435Y0160752D02*
X0086818Y0160752D01*
X0096900Y0160134D02*
X0098752Y0160134D01*
X0099369Y0160752D01*
X0099369Y0161986D01*
X0098752Y0162603D01*
X0096900Y0162603D01*
X0096900Y0158900D01*
X0098134Y0160134D02*
X0099369Y0158900D01*
X0100583Y0160752D02*
X0103052Y0160752D01*
X0104266Y0161369D02*
X0105501Y0162603D01*
X0105501Y0158900D01*
X0106735Y0158900D02*
X0104266Y0158900D01*
X0102435Y0158900D02*
X0102435Y0162603D01*
X0100583Y0160752D01*
X0111900Y0160134D02*
X0113752Y0160134D01*
X0114369Y0160752D01*
X0114369Y0161986D01*
X0113752Y0162603D01*
X0111900Y0162603D01*
X0111900Y0158900D01*
X0113134Y0160134D02*
X0114369Y0158900D01*
X0115583Y0159517D02*
X0116200Y0158900D01*
X0117435Y0158900D01*
X0118052Y0159517D01*
X0118052Y0160752D01*
X0117435Y0161369D01*
X0116818Y0161369D01*
X0115583Y0160752D01*
X0115583Y0162603D01*
X0118052Y0162603D01*
X0119266Y0161369D02*
X0120501Y0162603D01*
X0120501Y0158900D01*
X0121735Y0158900D02*
X0119266Y0158900D01*
X0126900Y0158900D02*
X0126900Y0162603D01*
X0128752Y0162603D01*
X0129369Y0161986D01*
X0129369Y0160752D01*
X0128752Y0160134D01*
X0126900Y0160134D01*
X0128134Y0160134D02*
X0129369Y0158900D01*
X0130583Y0159517D02*
X0130583Y0160752D01*
X0132435Y0160752D01*
X0133052Y0160134D01*
X0133052Y0159517D01*
X0132435Y0158900D01*
X0131200Y0158900D01*
X0130583Y0159517D01*
X0130583Y0160752D02*
X0131818Y0161986D01*
X0133052Y0162603D01*
X0134266Y0161369D02*
X0135501Y0162603D01*
X0135501Y0158900D01*
X0136735Y0158900D02*
X0134266Y0158900D01*
X0134883Y0152603D02*
X0136118Y0152603D01*
X0136735Y0151986D01*
X0134266Y0149517D01*
X0134883Y0148900D01*
X0136118Y0148900D01*
X0136735Y0149517D01*
X0136735Y0151986D01*
X0134883Y0152603D02*
X0134266Y0151986D01*
X0134266Y0149517D01*
X0133052Y0149517D02*
X0133052Y0150134D01*
X0132435Y0150752D01*
X0130583Y0150752D01*
X0130583Y0149517D01*
X0131200Y0148900D01*
X0132435Y0148900D01*
X0133052Y0149517D01*
X0131818Y0151986D02*
X0130583Y0150752D01*
X0129369Y0150752D02*
X0129369Y0151986D01*
X0128752Y0152603D01*
X0126900Y0152603D01*
X0126900Y0148900D01*
X0126900Y0150134D02*
X0128752Y0150134D01*
X0129369Y0150752D01*
X0128134Y0150134D02*
X0129369Y0148900D01*
X0131818Y0151986D02*
X0133052Y0152603D01*
X0141900Y0152603D02*
X0141900Y0148900D01*
X0141900Y0150134D02*
X0143752Y0150134D01*
X0144369Y0150752D01*
X0144369Y0151986D01*
X0143752Y0152603D01*
X0141900Y0152603D01*
X0143134Y0150134D02*
X0144369Y0148900D01*
X0145583Y0148900D02*
X0145583Y0149517D01*
X0148052Y0151986D01*
X0148052Y0152603D01*
X0145583Y0152603D01*
X0149266Y0151986D02*
X0149266Y0149517D01*
X0151735Y0151986D01*
X0151735Y0149517D01*
X0151118Y0148900D01*
X0149883Y0148900D01*
X0149266Y0149517D01*
X0149266Y0151986D02*
X0149883Y0152603D01*
X0151118Y0152603D01*
X0151735Y0151986D01*
X0151735Y0158900D02*
X0149266Y0158900D01*
X0150501Y0158900D02*
X0150501Y0162603D01*
X0149266Y0161369D01*
X0148052Y0161986D02*
X0145583Y0159517D01*
X0145583Y0158900D01*
X0144369Y0158900D02*
X0143134Y0160134D01*
X0143752Y0160134D02*
X0141900Y0160134D01*
X0141900Y0158900D02*
X0141900Y0162603D01*
X0143752Y0162603D01*
X0144369Y0161986D01*
X0144369Y0160752D01*
X0143752Y0160134D01*
X0145583Y0162603D02*
X0148052Y0162603D01*
X0148052Y0161986D01*
X0148052Y0142603D02*
X0146818Y0141986D01*
X0145583Y0140752D01*
X0147435Y0140752D01*
X0148052Y0140134D01*
X0148052Y0139517D01*
X0147435Y0138900D01*
X0146200Y0138900D01*
X0145583Y0139517D01*
X0145583Y0140752D01*
X0144369Y0140752D02*
X0143752Y0140134D01*
X0141900Y0140134D01*
X0141900Y0138900D02*
X0141900Y0142603D01*
X0143752Y0142603D01*
X0144369Y0141986D01*
X0144369Y0140752D01*
X0143134Y0140134D02*
X0144369Y0138900D01*
X0149266Y0139517D02*
X0149883Y0138900D01*
X0151118Y0138900D01*
X0151735Y0139517D01*
X0151735Y0141986D01*
X0151118Y0142603D01*
X0149883Y0142603D01*
X0149266Y0141986D01*
X0149266Y0141369D01*
X0149883Y0140752D01*
X0151735Y0140752D01*
X0151118Y0132603D02*
X0149883Y0132603D01*
X0149266Y0131986D01*
X0149266Y0131369D01*
X0149883Y0130752D01*
X0151118Y0130752D01*
X0151735Y0130134D01*
X0151735Y0129517D01*
X0151118Y0128900D01*
X0149883Y0128900D01*
X0149266Y0129517D01*
X0149266Y0130134D01*
X0149883Y0130752D01*
X0151118Y0130752D02*
X0151735Y0131369D01*
X0151735Y0131986D01*
X0151118Y0132603D01*
X0148052Y0132603D02*
X0146818Y0131986D01*
X0145583Y0130752D01*
X0147435Y0130752D01*
X0148052Y0130134D01*
X0148052Y0129517D01*
X0147435Y0128900D01*
X0146200Y0128900D01*
X0145583Y0129517D01*
X0145583Y0130752D01*
X0144369Y0130752D02*
X0143752Y0130134D01*
X0141900Y0130134D01*
X0141900Y0128900D02*
X0141900Y0132603D01*
X0143752Y0132603D01*
X0144369Y0131986D01*
X0144369Y0130752D01*
X0143134Y0130134D02*
X0144369Y0128900D01*
X0143752Y0122603D02*
X0144369Y0121986D01*
X0144369Y0120752D01*
X0143752Y0120134D01*
X0141900Y0120134D01*
X0141900Y0118900D02*
X0141900Y0122603D01*
X0143752Y0122603D01*
X0143134Y0120134D02*
X0144369Y0118900D01*
X0145583Y0119517D02*
X0146200Y0118900D01*
X0147435Y0118900D01*
X0148052Y0119517D01*
X0148052Y0120134D01*
X0147435Y0120752D01*
X0145583Y0120752D01*
X0145583Y0119517D01*
X0145583Y0120752D02*
X0146818Y0121986D01*
X0148052Y0122603D01*
X0149266Y0122603D02*
X0151735Y0122603D01*
X0151735Y0121986D01*
X0149266Y0119517D01*
X0149266Y0118900D01*
X0136735Y0129517D02*
X0136735Y0130134D01*
X0136118Y0130752D01*
X0134883Y0130752D01*
X0134266Y0131369D01*
X0134266Y0131986D01*
X0134883Y0132603D01*
X0136118Y0132603D01*
X0136735Y0131986D01*
X0136735Y0131369D01*
X0136118Y0130752D01*
X0134883Y0130752D02*
X0134266Y0130134D01*
X0134266Y0129517D01*
X0134883Y0128900D01*
X0136118Y0128900D01*
X0136735Y0129517D01*
X0133052Y0129517D02*
X0132435Y0128900D01*
X0131200Y0128900D01*
X0130583Y0129517D01*
X0130583Y0130752D02*
X0131818Y0131369D01*
X0132435Y0131369D01*
X0133052Y0130752D01*
X0133052Y0129517D01*
X0130583Y0130752D02*
X0130583Y0132603D01*
X0133052Y0132603D01*
X0129369Y0131986D02*
X0129369Y0130752D01*
X0128752Y0130134D01*
X0126900Y0130134D01*
X0126900Y0128900D02*
X0126900Y0132603D01*
X0128752Y0132603D01*
X0129369Y0131986D01*
X0128134Y0130134D02*
X0129369Y0128900D01*
X0129369Y0138900D02*
X0128134Y0140134D01*
X0128752Y0140134D02*
X0126900Y0140134D01*
X0126900Y0138900D02*
X0126900Y0142603D01*
X0128752Y0142603D01*
X0129369Y0141986D01*
X0129369Y0140752D01*
X0128752Y0140134D01*
X0130583Y0139517D02*
X0131200Y0138900D01*
X0132435Y0138900D01*
X0133052Y0139517D01*
X0133052Y0140752D01*
X0132435Y0141369D01*
X0131818Y0141369D01*
X0130583Y0140752D01*
X0130583Y0142603D01*
X0133052Y0142603D01*
X0134266Y0141986D02*
X0134266Y0141369D01*
X0134883Y0140752D01*
X0136735Y0140752D01*
X0136735Y0141986D02*
X0136735Y0139517D01*
X0136118Y0138900D01*
X0134883Y0138900D01*
X0134266Y0139517D01*
X0134266Y0141986D02*
X0134883Y0142603D01*
X0136118Y0142603D01*
X0136735Y0141986D01*
X0114369Y0121986D02*
X0114369Y0120752D01*
X0113752Y0120134D01*
X0111900Y0120134D01*
X0111900Y0118900D02*
X0111900Y0122603D01*
X0113752Y0122603D01*
X0114369Y0121986D01*
X0113134Y0120134D02*
X0114369Y0118900D01*
X0106735Y0121986D02*
X0104266Y0119517D01*
X0104266Y0118900D01*
X0103052Y0119517D02*
X0103052Y0120134D01*
X0102435Y0120752D01*
X0101818Y0120752D01*
X0102435Y0120752D02*
X0103052Y0121369D01*
X0103052Y0121986D01*
X0102435Y0122603D01*
X0101200Y0122603D01*
X0100583Y0121986D01*
X0099369Y0121986D02*
X0099369Y0120752D01*
X0098752Y0120134D01*
X0096900Y0120134D01*
X0096900Y0118900D02*
X0096900Y0122603D01*
X0098752Y0122603D01*
X0099369Y0121986D01*
X0098134Y0120134D02*
X0099369Y0118900D01*
X0100583Y0119517D02*
X0101200Y0118900D01*
X0102435Y0118900D01*
X0103052Y0119517D01*
X0104266Y0122603D02*
X0106735Y0122603D01*
X0106735Y0121986D01*
X0091735Y0121986D02*
X0089266Y0119517D01*
X0089266Y0118900D01*
X0088052Y0118900D02*
X0085583Y0118900D01*
X0088052Y0121369D01*
X0088052Y0121986D01*
X0087435Y0122603D01*
X0086200Y0122603D01*
X0085583Y0121986D01*
X0084369Y0121986D02*
X0084369Y0120752D01*
X0083752Y0120134D01*
X0081900Y0120134D01*
X0081900Y0118900D02*
X0081900Y0122603D01*
X0083752Y0122603D01*
X0084369Y0121986D01*
X0083134Y0120134D02*
X0084369Y0118900D01*
X0089266Y0122603D02*
X0091735Y0122603D01*
X0091735Y0121986D01*
X0091118Y0128900D02*
X0089883Y0128900D01*
X0089266Y0129517D01*
X0089266Y0130134D01*
X0089883Y0130752D01*
X0091118Y0130752D01*
X0091735Y0130134D01*
X0091735Y0129517D01*
X0091118Y0128900D01*
X0091118Y0130752D02*
X0091735Y0131369D01*
X0091735Y0131986D01*
X0091118Y0132603D01*
X0089883Y0132603D01*
X0089266Y0131986D01*
X0089266Y0131369D01*
X0089883Y0130752D01*
X0088052Y0131369D02*
X0088052Y0131986D01*
X0087435Y0132603D01*
X0086200Y0132603D01*
X0085583Y0131986D01*
X0084369Y0131986D02*
X0084369Y0130752D01*
X0083752Y0130134D01*
X0081900Y0130134D01*
X0081900Y0128900D02*
X0081900Y0132603D01*
X0083752Y0132603D01*
X0084369Y0131986D01*
X0083134Y0130134D02*
X0084369Y0128900D01*
X0085583Y0128900D02*
X0088052Y0131369D01*
X0088052Y0128900D02*
X0085583Y0128900D01*
X0076735Y0129517D02*
X0076118Y0128900D01*
X0074883Y0128900D01*
X0074266Y0129517D01*
X0074266Y0130134D01*
X0074883Y0130752D01*
X0076118Y0130752D01*
X0076735Y0130134D01*
X0076735Y0129517D01*
X0076118Y0130752D02*
X0076735Y0131369D01*
X0076735Y0131986D01*
X0076118Y0132603D01*
X0074883Y0132603D01*
X0074266Y0131986D01*
X0074266Y0131369D01*
X0074883Y0130752D01*
X0073052Y0128900D02*
X0070583Y0128900D01*
X0069369Y0128900D02*
X0068134Y0130134D01*
X0068752Y0130134D02*
X0066900Y0130134D01*
X0066900Y0128900D02*
X0066900Y0132603D01*
X0068752Y0132603D01*
X0069369Y0131986D01*
X0069369Y0130752D01*
X0068752Y0130134D01*
X0070583Y0131369D02*
X0071818Y0132603D01*
X0071818Y0128900D01*
X0071818Y0122603D02*
X0071818Y0118900D01*
X0073052Y0118900D02*
X0070583Y0118900D01*
X0069369Y0118900D02*
X0068134Y0120134D01*
X0068752Y0120134D02*
X0066900Y0120134D01*
X0066900Y0118900D02*
X0066900Y0122603D01*
X0068752Y0122603D01*
X0069369Y0121986D01*
X0069369Y0120752D01*
X0068752Y0120134D01*
X0070583Y0121369D02*
X0071818Y0122603D01*
X0074266Y0122603D02*
X0076735Y0122603D01*
X0076735Y0121986D01*
X0074266Y0119517D01*
X0074266Y0118900D01*
X0061735Y0129517D02*
X0061735Y0131986D01*
X0059266Y0129517D01*
X0059883Y0128900D01*
X0061118Y0128900D01*
X0061735Y0129517D01*
X0059266Y0129517D02*
X0059266Y0131986D01*
X0059883Y0132603D01*
X0061118Y0132603D01*
X0061735Y0131986D01*
X0058052Y0128900D02*
X0055583Y0128900D01*
X0054369Y0128900D02*
X0053134Y0130134D01*
X0053752Y0130134D02*
X0051900Y0130134D01*
X0051900Y0128900D02*
X0051900Y0132603D01*
X0053752Y0132603D01*
X0054369Y0131986D01*
X0054369Y0130752D01*
X0053752Y0130134D01*
X0055583Y0131369D02*
X0056818Y0132603D01*
X0056818Y0128900D01*
X0057435Y0122603D02*
X0056200Y0122603D01*
X0055583Y0121986D01*
X0055583Y0121369D01*
X0056200Y0120752D01*
X0058052Y0120752D01*
X0058052Y0121986D02*
X0057435Y0122603D01*
X0058052Y0121986D02*
X0058052Y0119517D01*
X0057435Y0118900D01*
X0056200Y0118900D01*
X0055583Y0119517D01*
X0054369Y0118900D02*
X0053134Y0120134D01*
X0053752Y0120134D02*
X0051900Y0120134D01*
X0051900Y0118900D02*
X0051900Y0122603D01*
X0053752Y0122603D01*
X0054369Y0121986D01*
X0054369Y0120752D01*
X0053752Y0120134D01*
X0054369Y0138900D02*
X0053134Y0140134D01*
X0053752Y0140134D02*
X0051900Y0140134D01*
X0051900Y0138900D02*
X0051900Y0142603D01*
X0053752Y0142603D01*
X0054369Y0141986D01*
X0054369Y0140752D01*
X0053752Y0140134D01*
X0055583Y0138900D02*
X0058052Y0138900D01*
X0059266Y0138900D02*
X0061735Y0138900D01*
X0060501Y0138900D02*
X0060501Y0142603D01*
X0059266Y0141369D01*
X0056818Y0142603D02*
X0056818Y0138900D01*
X0055583Y0141369D02*
X0056818Y0142603D01*
X0066900Y0142603D02*
X0066900Y0138900D01*
X0066900Y0140134D02*
X0068752Y0140134D01*
X0069369Y0140752D01*
X0069369Y0141986D01*
X0068752Y0142603D01*
X0066900Y0142603D01*
X0068134Y0140134D02*
X0069369Y0138900D01*
X0070583Y0138900D02*
X0073052Y0138900D01*
X0071818Y0138900D02*
X0071818Y0142603D01*
X0070583Y0141369D01*
X0074266Y0141369D02*
X0074883Y0140752D01*
X0076735Y0140752D01*
X0076735Y0141986D02*
X0076735Y0139517D01*
X0076118Y0138900D01*
X0074883Y0138900D01*
X0074266Y0139517D01*
X0074266Y0141369D02*
X0074266Y0141986D01*
X0074883Y0142603D01*
X0076118Y0142603D01*
X0076735Y0141986D01*
X0081900Y0142603D02*
X0081900Y0138900D01*
X0081900Y0140134D02*
X0083752Y0140134D01*
X0084369Y0140752D01*
X0084369Y0141986D01*
X0083752Y0142603D01*
X0081900Y0142603D01*
X0083134Y0140134D02*
X0084369Y0138900D01*
X0085583Y0138900D02*
X0088052Y0141369D01*
X0088052Y0141986D01*
X0087435Y0142603D01*
X0086200Y0142603D01*
X0085583Y0141986D01*
X0085583Y0138900D02*
X0088052Y0138900D01*
X0089266Y0139517D02*
X0089883Y0138900D01*
X0091118Y0138900D01*
X0091735Y0139517D01*
X0091735Y0141986D01*
X0091118Y0142603D01*
X0089883Y0142603D01*
X0089266Y0141986D01*
X0089266Y0141369D01*
X0089883Y0140752D01*
X0091735Y0140752D01*
X0076735Y0149517D02*
X0076118Y0148900D01*
X0074883Y0148900D01*
X0074266Y0149517D01*
X0076735Y0151986D01*
X0076735Y0149517D01*
X0074266Y0149517D02*
X0074266Y0151986D01*
X0074883Y0152603D01*
X0076118Y0152603D01*
X0076735Y0151986D01*
X0073052Y0151986D02*
X0073052Y0151369D01*
X0070583Y0148900D01*
X0073052Y0148900D01*
X0073052Y0151986D02*
X0072435Y0152603D01*
X0071200Y0152603D01*
X0070583Y0151986D01*
X0069369Y0151986D02*
X0069369Y0150752D01*
X0068752Y0150134D01*
X0066900Y0150134D01*
X0066900Y0148900D02*
X0066900Y0152603D01*
X0068752Y0152603D01*
X0069369Y0151986D01*
X0068134Y0150134D02*
X0069369Y0148900D01*
X0069369Y0158900D02*
X0068134Y0160134D01*
X0068752Y0160134D02*
X0066900Y0160134D01*
X0066900Y0158900D02*
X0066900Y0162603D01*
X0068752Y0162603D01*
X0069369Y0161986D01*
X0069369Y0160752D01*
X0068752Y0160134D01*
X0070583Y0158900D02*
X0073052Y0161369D01*
X0073052Y0161986D01*
X0072435Y0162603D01*
X0071200Y0162603D01*
X0070583Y0161986D01*
X0070583Y0158900D02*
X0073052Y0158900D01*
X0074266Y0158900D02*
X0076735Y0158900D01*
X0075501Y0158900D02*
X0075501Y0162603D01*
X0074266Y0161369D01*
X0042435Y0087603D02*
X0041200Y0087603D01*
X0040583Y0086986D01*
X0039369Y0086986D02*
X0039369Y0085752D01*
X0038752Y0085134D01*
X0036900Y0085134D01*
X0036900Y0083900D02*
X0036900Y0087603D01*
X0038752Y0087603D01*
X0039369Y0086986D01*
X0038134Y0085134D02*
X0039369Y0083900D01*
X0040583Y0084517D02*
X0041200Y0083900D01*
X0042435Y0083900D01*
X0043052Y0084517D01*
X0043052Y0085134D01*
X0042435Y0085752D01*
X0041818Y0085752D01*
X0042435Y0085752D02*
X0043052Y0086369D01*
X0043052Y0086986D01*
X0042435Y0087603D01*
X0051950Y0067603D02*
X0053802Y0067603D01*
X0054419Y0066986D01*
X0054419Y0065752D01*
X0053802Y0065134D01*
X0051950Y0065134D01*
X0051950Y0063900D02*
X0051950Y0067603D01*
X0053184Y0065134D02*
X0054419Y0063900D01*
X0055633Y0065752D02*
X0058102Y0065752D01*
X0057485Y0067603D02*
X0057485Y0063900D01*
X0055633Y0065752D02*
X0057485Y0067603D01*
X0066900Y0067603D02*
X0066900Y0063900D01*
X0066900Y0065134D02*
X0068752Y0065134D01*
X0069369Y0065752D01*
X0069369Y0066986D01*
X0068752Y0067603D01*
X0066900Y0067603D01*
X0068134Y0065134D02*
X0069369Y0063900D01*
X0070583Y0063900D02*
X0073052Y0063900D01*
X0074266Y0063900D02*
X0076735Y0066369D01*
X0076735Y0066986D01*
X0076118Y0067603D01*
X0074883Y0067603D01*
X0074266Y0066986D01*
X0071818Y0067603D02*
X0071818Y0063900D01*
X0074266Y0063900D02*
X0076735Y0063900D01*
X0081900Y0063900D02*
X0081900Y0067603D01*
X0083752Y0067603D01*
X0084369Y0066986D01*
X0084369Y0065752D01*
X0083752Y0065134D01*
X0081900Y0065134D01*
X0083134Y0065134D02*
X0084369Y0063900D01*
X0085583Y0063900D02*
X0088052Y0066369D01*
X0088052Y0066986D01*
X0087435Y0067603D01*
X0086200Y0067603D01*
X0085583Y0066986D01*
X0085583Y0063900D02*
X0088052Y0063900D01*
X0089266Y0063900D02*
X0091735Y0066369D01*
X0091735Y0066986D01*
X0091118Y0067603D01*
X0089883Y0067603D01*
X0089266Y0066986D01*
X0089266Y0063900D02*
X0091735Y0063900D01*
X0071818Y0067603D02*
X0070583Y0066369D01*
M02*
